{"title":"Geordie Shore S08E01 WEB-DL","uid":10624761,"size":507586387,"categoryP":"video","categoryS":"tv_shows","magnet":"?xt=urn:btih:7b88bb6b8c2d264eef3f2b2ed43167c51a42444e&amp;dn=Geordie+Shore+S08E01+WEB-DL&amp;tr=udp%3A%2F%2Ftracker.openbittorrent.com%3A80&amp;tr=udp%3A%2F%2Fopen.demonii.com%3A1337&amp;tr=udp%3A%2F%2Ftracker.coppersurfer.tk%3A6969&amp;tr=udp%3A%2F%2Fexodus.desync.com%3A6969","seeders":4,"leechers":0,"uploader":"jmanwf","files":-1,"time":1406206860,"description":"Description\nA new lad - Aaron, joins the cast. Marnie promises to try and stay away from the lads, but ends up in bed with Gary right away.\n\n\n\nFormat : MPEG-4\nFormat profile : Base Media / Version 2\nCodec ID : mp42\nFile size : 484 MiB\nDuration : 42mn 14s\nOverall bit rate mode : Variable\nOverall bit rate : 1 602 Kbps\nEncoded date : UTC 2014-07-24 06:01:19\nTagged date : UTC 2014-07-24 06:34:42\nWriting application : HandBrake 0.9.9 2013052900\n\nVideo\nID : 1\nFormat : AVC\nFormat/Info : Advanced Video Codec\nFormat profile : &lt;a class=&quot;__cf_email__&quot; href=&quot;/cdn-cgi/l/email-protection&quot; data-cfemail=&quot;d79fbeb0bf979be3f9e6&quot;&gt;[email&amp;#160;protected]&lt;/a&gt;&lt;script cf-hash='f9e31' type=&quot;text/javascript&quot;&gt;\n/* &lt;![CDATA[ */!function(){try{var t=&quot;currentScript&quot;in document?document.currentScript:function(){for(var t=document.getElementsByTagName(&quot;script&quot;),e=t.length;e--;)if(t[e].getAttribute(&quot;cf-hash&quot;))return t[e]}();if(t&amp;&amp;t.previousSibling){var e,r,n,i,c=t.previousSibling,a=c.getAttribute(&quot;data-cfemail&quot;);if(a){for(e=&quot;&quot;,r=parseInt(a.substr(0,2),16),n=2;a.length-n;n+=2)i=parseInt(a.substr(n,2),16)^r,e+=String.fromCharCode(i);e=document.createTextNode(e),c.parentNode.replaceChild(e,c)}}}catch(u){}}();/* ]]&gt; */&lt;/script&gt;\nFormat settings, CABAC : Yes\nFormat settings, ReFrames : 4 frames\nCodec ID : avc1\nCodec ID/Info : Advanced Video Coding\nDuration : 42mn 14s\nBit rate : 1 501 Kbps\nWidth : 960 pixels\nHeight : 540 pixels\nDisplay aspect ratio : 16:9\nFrame rate mode : Variable\nFrame rate : 25.000 fps\nMinimum frame rate : 12.502 fps\nMaximum frame rate : 25.007 fps\nColor space : YUV\nChroma subsampling : 4:2:0\nBit depth : 8 bits\nScan type : Progressive\nBits/(Pixel*Frame) : 0.116\nStream size : 454 MiB (94%)\nWriting library : x264 core 130 r2273 b3065e6\nEncoded date : UTC 2014-07-24 06:01:19\nTagged date : UTC 2014-07-24 06:34:42\nColor primaries : BT.709\nTransfer characteristics : BT.709\nMatrix coefficients : BT.709\n\nAudio\nID : 2\nFormat : AAC\nFormat/Info : Advanced Audio Codec\nFormat profile : LC\nCodec ID : 40\nDuration : 42mn 14s\nBit rate mode : Variable\nBit rate : 96.0 Kbps\nMaximum bit rate : 198 Kbps\nChannel(s) : 2 channels\nChannel positions : Front: L R\nSampling rate : 48.0 KHz\nCompression mode : Lossy\nStream size : 29.0 MiB (6%)\nLanguage : English\nEncoded date : UTC 2014-07-24 06:01:19\nTagged date : UTC 2014-07-24 06:34:41\n\n\n &lt;a href=&quot;\nhttp://www.imdb.com/title/tt1960255/&quot; rel=&quot;nofollow&quot; target=&quot;_NEW&quot;&gt;\nhttp://www.imdb.com/title/tt1960255/&lt;/a&gt;","torrent":{"xt":"urn:btih:7b88bb6b8c2d264eef3f2b2ed43167c51a42444e","amp;dn":"Geordie+Shore+S08E01+WEB-DL","amp;tr":["udp%3A%2F%2Ftracker.openbittorrent.com%3A80","udp%3A%2F%2Fopen.demonii.com%3A1337","udp%3A%2F%2Ftracker.coppersurfer.tk%3A6969","udp%3A%2F%2Fexodus.desync.com%3A6969"],"infoHash":"7b88bb6b8c2d264eef3f2b2ed43167c51a42444e","infoHashBuffer":{"type":"Buffer","data":[123,136,187,107,140,45,38,78,239,63,43,46,212,49,103,197,26,66,68,78]},"announce":[],"urlList":[]}}